<?xml version="1.0" encoding="utf-8"?>
<!-- Generator: Adobe Illustrator 23.0.3, SVG Export Plug-In . SVG Version: 6.00 Build 0)  -->
<svg version="1.1" id="Слой_1" xmlns="http://www.w3.org/2000/svg" xmlns:xlink="http://www.w3.org/1999/xlink" x="0px" y="0px"
	 viewBox="0 0 850.4 297.6" style="enable-background:new 0 0 850.4 297.6;" xml:space="preserve">
<style type="text/css">
	.st0{fill-rule:evenodd;clip-rule:evenodd;fill:#2B2D64;}
	.st1{fill:#FFFFFF;}
	.st2{fill:none;stroke:#C12D33;stroke-width:0.5669;stroke-miterlimit:22.9256;}
	.st3{fill-rule:evenodd;clip-rule:evenodd;fill:#42439F;}
	.st4{fill-rule:evenodd;clip-rule:evenodd;fill:#C02C32;}
	.st5{fill-rule:evenodd;clip-rule:evenodd;fill:#F7F7F6;}
	.st6{fill:#C12D33;}
</style>
<rect x="708.7" class="st0" width="141.7" height="297.6"/>
<path class="st1" d="M69.9,157l0,0.2c1.1,5,5.6,8.8,10.9,8.8c6.2,0,11.2-5,11.2-11.2s-5-11.2-11.2-11.2s-11.2,5-11.2,11.2
	C69.6,155.5,69.7,156.2,69.9,157z M53.6,143.4H44v-8.7h22.1l2,4.6c3.5-2.9,7.9-4.6,12.8-4.6c11.1,0,20,9,20,20c0,11.1-9,20-20,20
	c-5.4,0-10.2-2.1-13.8-5.5c-0.3,0.4-0.7,0.8-1.1,1.2c-2.9,2.9-6.3,4.3-10.3,4.3c-4,0-7.5-1.4-10.4-4.3c-2.9-2.9-4.3-6.3-4.3-10.4
	h8.8c0,1.6,0.6,3,1.7,4.1c1.2,1.1,2.5,1.7,4.1,1.7c1.5,0,2.9-0.6,4.1-1.7c1.2-1.1,1.8-2.5,1.8-4.1c0-1.6-0.6-3-1.8-4.2
	c-1.2-1.2-2.5-1.7-4.1-1.7c-1.3,0-2.6,0.5-3.7,1.4l-5.5-6.7L53.6,143.4z"/>
<path class="st2" d="M69.9,157l0,0.2c1.1,5,5.6,8.8,10.9,8.8c6.2,0,11.2-5,11.2-11.2s-5-11.2-11.2-11.2s-11.2,5-11.2,11.2
	C69.6,155.5,69.7,156.2,69.9,157z M53.6,143.4H44v-8.7h22.1l2,4.6c3.5-2.9,7.9-4.6,12.8-4.6c11.1,0,20,9,20,20c0,11.1-9,20-20,20
	c-5.4,0-10.2-2.1-13.8-5.5c-0.3,0.4-0.7,0.8-1.1,1.2c-2.9,2.9-6.3,4.3-10.3,4.3c-4,0-7.5-1.4-10.4-4.3c-2.9-2.9-4.3-6.3-4.3-10.4
	h8.8c0,1.6,0.6,3,1.7,4.1c1.2,1.1,2.5,1.7,4.1,1.7c1.5,0,2.9-0.6,4.1-1.7c1.2-1.1,1.8-2.5,1.8-4.1c0-1.6-0.6-3-1.8-4.2
	c-1.2-1.2-2.5-1.7-4.1-1.7c-1.3,0-2.6,0.5-3.7,1.4l-5.5-6.7L53.6,143.4z"/>
<polygon class="st3" points="55.4,148.7 66.8,139.6 66.8,139.6 87.8,122.9 94.5,131.2 83,140.3 83,140.3 62,157.1 "/>
<polygon class="st4" points="71.7,145.4 81.1,137.8 81.1,137.8 88.9,131.6 94.4,138.4 94.4,138.4 77.1,152.2 "/>
<polygon class="st5" points="47,148.9 56.4,141.4 56.4,141.4 64.2,135.1 69.7,141.9 69.7,141.9 52.4,155.7 "/>
<path class="st1" d="M353.3,157l0,0.2c1.1,5,5.6,8.8,10.9,8.8c6.2,0,11.2-5,11.2-11.2s-5-11.2-11.2-11.2c-6.2,0-11.2,5-11.2,11.2
	C353.1,155.5,353.2,156.2,353.3,157z M337.1,143.4h-9.6v-8.7h22.1l2,4.6c3.5-2.9,7.9-4.6,12.8-4.6c11.1,0,20,9,20,20
	c0,11.1-9,20-20,20c-5.4,0-10.2-2.1-13.8-5.5c-0.3,0.4-0.7,0.8-1.1,1.2c-2.9,2.9-6.3,4.3-10.3,4.3c-4,0-7.5-1.4-10.4-4.3
	c-2.9-2.9-4.3-6.3-4.3-10.4h8.8c0,1.6,0.6,3,1.7,4.1c1.2,1.1,2.5,1.7,4.1,1.7c1.5,0,2.9-0.6,4.1-1.7c1.2-1.1,1.8-2.5,1.8-4.1
	c0-1.6-0.6-3-1.8-4.2c-1.2-1.2-2.5-1.7-4.1-1.7c-1.3,0-2.6,0.5-3.7,1.4l-5.5-6.7L337.1,143.4z"/>
<path class="st2" d="M353.3,157l0,0.2c1.1,5,5.6,8.8,10.9,8.8c6.2,0,11.2-5,11.2-11.2s-5-11.2-11.2-11.2c-6.2,0-11.2,5-11.2,11.2
	C353.1,155.5,353.2,156.2,353.3,157z M337.1,143.4h-9.6v-8.7h22.1l2,4.6c3.5-2.9,7.9-4.6,12.8-4.6c11.1,0,20,9,20,20
	c0,11.1-9,20-20,20c-5.4,0-10.2-2.1-13.8-5.5c-0.3,0.4-0.7,0.8-1.1,1.2c-2.9,2.9-6.3,4.3-10.3,4.3c-4,0-7.5-1.4-10.4-4.3
	c-2.9-2.9-4.3-6.3-4.3-10.4h8.8c0,1.6,0.6,3,1.7,4.1c1.2,1.1,2.5,1.7,4.1,1.7c1.5,0,2.9-0.6,4.1-1.7c1.2-1.1,1.8-2.5,1.8-4.1
	c0-1.6-0.6-3-1.8-4.2c-1.2-1.2-2.5-1.7-4.1-1.7c-1.3,0-2.6,0.5-3.7,1.4l-5.5-6.7L337.1,143.4z"/>
<polygon class="st3" points="338.9,148.7 350.3,139.6 350.3,139.6 371.3,122.9 377.9,131.2 366.5,140.3 366.5,140.3 345.5,157.1 "/>
<polygon class="st4" points="355.1,145.4 364.5,137.8 364.5,137.8 372.4,131.6 377.8,138.4 377.8,138.4 360.6,152.2 "/>
<polygon class="st5" points="330.4,148.9 339.8,141.4 339.8,141.4 347.7,135.1 353.1,141.9 353.1,141.9 335.9,155.7 "/>
<path class="st1" d="M211.6,140.3l0,0.2c1.1,5,5.6,8.8,10.9,8.8c6.2,0,11.2-5,11.2-11.2s-5-11.2-11.2-11.2c-6.2,0-11.2,5-11.2,11.2
	C211.4,138.8,211.5,139.5,211.6,140.3 M195.4,126.7h-9.6V118h22.1l2,4.6c3.5-2.9,8-4.6,12.8-4.6c11.1,0,20,9,20,20
	c0,11.1-9,20-20,20c-5.4,0-10.2-2.1-13.8-5.5c-0.3,0.4-0.7,0.8-1.1,1.2c-2.9,2.9-6.3,4.3-10.3,4.3c-4,0-7.5-1.4-10.4-4.3
	c-2.9-2.9-4.3-6.3-4.3-10.4h8.8c0,1.6,0.6,3,1.7,4.1c1.2,1.1,2.5,1.7,4.1,1.7c1.5,0,2.9-0.6,4.1-1.7c1.2-1.1,1.8-2.5,1.8-4.1
	c0-1.6-0.6-3-1.8-4.2c-1.2-1.2-2.5-1.7-4.1-1.7c-1.3,0-2.6,0.5-3.7,1.4l-5.5-6.7L195.4,126.7z"/>
<path class="st6" d="M211.2,140.5l0-0.2c-0.1-0.4-0.1-0.8-0.2-1.1c0-0.4-0.1-0.8-0.1-1.2c0-3.2,1.3-6.1,3.4-8.2
	c2.1-2.1,5-3.4,8.2-3.4c3.2,0,6.1,1.3,8.2,3.4c2.1,2.1,3.4,5,3.4,8.2c0,3.2-1.3,6.1-3.4,8.2c-2.1,2.1-5,3.4-8.2,3.4
	c-2.8,0-5.3-1-7.3-2.6C213.3,145.4,211.8,143.1,211.2,140.5 M212,140.2l0,0.2c0.5,2.5,1.9,4.6,3.8,6.1c1.8,1.5,4.2,2.4,6.8,2.4
	c3,0,5.7-1.2,7.6-3.2c2-2,3.2-4.6,3.2-7.6c0-3-1.2-5.7-3.2-7.6c-2-2-4.6-3.2-7.6-3.2c-3,0-5.7,1.2-7.6,3.2c-2,2-3.2,4.6-3.2,7.6
	c0,0.4,0,0.7,0.1,1.1C211.9,139.5,211.9,139.8,212,140.2z M186.1,126.3h10.5l-7.9,5.9l4.9,6.1c0.5-0.4,1-0.6,1.6-0.8
	c0.7-0.2,1.4-0.4,2.1-0.4c0.8,0,1.6,0.2,2.3,0.5c0.7,0.3,1.4,0.8,2,1.4c0.6,0.6,1.1,1.3,1.4,2.1c0.3,0.8,0.5,1.6,0.5,2.4
	c0,0.9-0.2,1.7-0.5,2.4c-0.3,0.7-0.8,1.4-1.4,2c-1.3,1.2-2.7,1.8-4.3,1.8c-1.7,0-3.2-0.6-4.4-1.8c-0.6-0.6-1.1-1.3-1.4-2
	c-0.3-0.6-0.4-1.3-0.5-2h-8c0,1.8,0.4,3.5,1,5c0.7,1.7,1.7,3.2,3.1,4.6c1.4,1.4,2.9,2.4,4.6,3.1c1.7,0.7,3.5,1,5.5,1
	c2,0,3.8-0.3,5.4-1c1.7-0.7,3.2-1.7,4.6-3.1c0.2-0.2,0.4-0.4,0.6-0.6c0.2-0.2,0.4-0.4,0.5-0.6l0.3-0.3l0.3,0.3
	c1.8,1.7,3.9,3.1,6.3,4c2.3,0.9,4.7,1.4,7.3,1.4c5.4,0,10.3-2.2,13.9-5.7c3.6-3.6,5.7-8.5,5.7-13.9c0-5.4-2.2-10.3-5.7-13.9
	s-8.5-5.7-13.9-5.7c-2.3,0-4.6,0.4-6.7,1.2c-2.2,0.8-4.2,1.9-5.9,3.4l-0.4,0.4l-2.1-4.9h-21.4V126.3z M242.9,140L242.9,140
	L242.9,140L242.9,140z M194.1,127.2h-8.8v-9.6h22.8l1.9,4.4c1.7-1.3,3.6-2.4,5.7-3.2c2.2-0.8,4.5-1.2,7-1.2c5.6,0,10.8,2.3,14.5,6
	c3.6,3.6,5.9,8.5,6,14v0v0c0,0.1,0,0.3,0,0.4c0,0.1,0,0.3,0,0.4v53h-60.9v-48.1v-0.3V143h9.7v0.4c0,0.8,0.1,1.5,0.4,2.1
	c0.3,0.6,0.7,1.2,1.2,1.7c1.1,1,2.4,1.6,3.8,1.6c1.4,0,2.7-0.5,3.8-1.6c0.5-0.5,1-1.1,1.2-1.7c0.3-0.6,0.4-1.3,0.4-2.1
	c0-0.8-0.1-1.5-0.4-2.1c-0.3-0.6-0.7-1.2-1.2-1.8c-0.5-0.5-1.1-1-1.8-1.2c-0.6-0.3-1.3-0.4-2-0.4c-0.6,0-1.2,0.1-1.8,0.3
	c-0.6,0.2-1.1,0.5-1.7,0.9l-0.3,0.3l-6-7.4L194.1,127.2z"/>
<polygon class="st3" points="197.1,132 208.6,122.9 208.6,122.9 229.6,106.2 236.2,114.5 224.7,123.6 224.7,123.6 203.8,140.4 "/>
<polygon class="st4" points="213.4,128.7 222.8,121.1 222.8,121.1 230.6,114.9 236.1,121.7 236.1,121.7 218.9,135.5 "/>
<polygon class="st5" points="188.7,132.2 198.1,124.7 198.1,124.7 205.9,118.4 211.4,125.2 211.4,125.2 194.1,139 "/>
<path class="st1" d="M213.9,184.6h1.2v-4.8H214l-1.2,2l-0.4,0.9l0,0c0,0,0.1-0.7,0.1-0.7v-2.2h-1.2v4.8h1.1l1.1-1.9l0.5-0.9l0,0
	c0,0-0.1,0.9-0.1,0.9V184.6z M209.2,184.6h1.2v-4.8h-1.1l-1.2,2l-0.4,0.9l0,0c0,0,0.1-0.7,0.1-0.7v-2.2h-1.2v4.8h1.1l1.1-1.9
	l0.5-0.9l0,0c0,0-0.1,0.9-0.1,0.9V184.6z M205.1,183.1c-0.3,0.7-1.3,0.5-1.3-0.1v-1.6c0-0.6,1.1-0.7,1.4-0.1l1-0.4
	c-0.4-0.8-1.1-1.1-1.7-1.1c-1,0-1.9,0.6-1.9,1.6v1.6c0,1.1,0.9,1.6,1.9,1.6c0.6,0,1.3-0.3,1.7-1.1L205.1,183.1z M201.2,183.1
	c-0.3,0.7-1.3,0.5-1.3-0.1v-1.6c0-0.6,1.1-0.7,1.4-0.1l1-0.4c-0.4-0.8-1.1-1.1-1.7-1.1c-1,0-1.9,0.6-1.9,1.6v1.6
	c0,1.1,0.9,1.6,1.9,1.6c0.6,0,1.3-0.3,1.7-1.1L201.2,183.1z M195.4,181.4c0-0.4,0.4-0.5,0.8-0.5c0.4,0,0.8,0.2,0.8,0.5v1.6
	c0,0.3-0.4,0.5-0.8,0.5c-0.4,0-0.8-0.2-0.8-0.5V181.4z M194.1,183c0,1.1,1,1.6,2,1.6c1,0,2-0.5,2-1.6v-1.6c0-1.1-1-1.6-2-1.6
	c-1,0-2,0.5-2,1.6V183z M191.3,182.1V181h0.7c0.7,0,0.7,1.2,0,1.2H191.3z M190.1,184.6h1.2v-1.4h0.7c1.2,0,1.7-0.8,1.7-1.7
	c0-0.8-0.6-1.7-1.7-1.7h-1.9V184.6z M207.3,175.4h-1.1c0.1-0.3,0.2-0.7,0.2-1.1l0.1-1.4h0.8V175.4z M205.5,177.5v-1h2.3v1h1.2v-2
	h-0.6v-3.7h-3.1l-0.1,1.6c-0.1,1.1,0,2.1-1,2.1v2H205.5z M201.2,174.7h1.4v1.8h1.2v-4.8h-1.2v1.8h-1.4v-1.8H200v4.8h1.2V174.7z
	 M196.6,173.3c0-0.4,0.4-0.5,0.8-0.5c0.4,0,0.8,0.2,0.8,0.5v1.6c0,0.3-0.4,0.5-0.8,0.5c-0.4,0-0.8-0.2-0.8-0.5V173.3z M195.4,174.9
	c0,1.1,1,1.6,2,1.6c1,0,2-0.5,2-1.6v-1.6c0-1.1-1-1.6-2-1.6c-1,0-2,0.5-2,1.6V174.9z M193.8,174.5c0,0.4-0.4,0.5-0.7,0.5v-1.8
	c0.4,0,0.7,0.1,0.7,0.5V174.5z M191.1,173.7c0-0.4,0.4-0.5,0.7-0.5v1.8c-0.4,0-0.7-0.1-0.7-0.5V173.7z M191.9,176.5h1.1v-0.4
	c1,0,2-0.4,2-1.6v-0.8c0-1.1-1-1.6-2-1.6v-0.4h-1.1v0.4c-1,0-2,0.4-2,1.6v0.8c0,1.1,1,1.6,2,1.6V176.5z M234.1,168.4h1.2v-4.8h-1.1
	l-1.2,2l-0.4,0.9l0,0c0,0,0.1-0.7,0.1-0.7v-2.2h-1.2v4.8h1.1l1.1-1.9l0.5-0.9l0,0c0,0-0.1,0.9-0.1,0.9V168.4z M233.3,163.3
	c0.6,0,1.2-0.4,1.2-1.2h-0.9c0,0.2-0.1,0.3-0.3,0.3c-0.2,0-0.3-0.1-0.3-0.3h-0.9C232.1,162.9,232.7,163.3,233.3,163.3z M226.5,167.4
	v-1.1h0.7c0.3,0,0.5,0.2,0.5,0.5c0,0.3-0.1,0.6-0.5,0.6H226.5z M230.7,163.7h-1.2v4.8h1.2V163.7z M228.9,166.8
	c0-0.9-0.4-1.5-1.7-1.5h-0.7v-1.6h-1.2v4.8h2C228.3,168.4,228.9,167.7,228.9,166.8z M221.9,166.6h1.4v1.8h1.2v-4.8h-1.2v1.8h-1.4
	v-1.8h-1.2v4.8h1.2V166.6z M217.4,166.6h1.4v1.8h1.2v-4.8h-1.2v1.8h-1.4v-1.8h-1.2v4.8h1.2V166.6z M212.8,165.2
	c0-0.4,0.4-0.5,0.8-0.5c0.4,0,0.8,0.2,0.8,0.5v1.6c0,0.3-0.4,0.5-0.8,0.5s-0.8-0.2-0.8-0.5V165.2z M211.6,166.9c0,1.1,1,1.6,2,1.6
	c1,0,2-0.5,2-1.6v-1.6c0-1.1-1-1.6-2-1.6c-1,0-2,0.5-2,1.6V166.9z M209.7,168.4h1.2v-4.8h-1.1l-1.2,2l-0.4,0.9l0,0
	c0,0,0.1-0.7,0.1-0.7v-2.2h-1.2v4.8h1.1l1.1-1.9l0.5-0.9l0,0c0,0-0.1,0.9-0.1,0.9V168.4z M205.6,166.9c-0.3,0.7-1.3,0.5-1.3-0.1
	v-1.6c0-0.6,1.1-0.7,1.4-0.1l1-0.4c-0.4-0.8-1.1-1.1-1.7-1.1c-1,0-1.9,0.6-1.9,1.6v1.6c0,1.1,0.9,1.6,1.9,1.6c0.6,0,1.3-0.3,1.7-1.1
	L205.6,166.9z M199.8,166.6h1.4v1.8h1.2v-4.8h-1.2v1.8h-1.4v-1.8h-1.2v4.8h1.2V166.6z M195.8,164.8h2.1v-1.1h-3.3v4.8h3.3v-1.1h-2.1
	v-0.7h1.9v-1h-1.9V164.8z M191.3,164.8h1.3v3.6h1.2v-4.8h-3.8v4.8h1.2V164.8z"/>
<path d="M382.8,201.2h1.6v-6.2h-1.4l-1.6,2.7l-0.5,1.1l0,0c0,0,0.1-0.9,0.1-0.9v-2.8h-1.6v6.2h1.5l1.5-2.5l0.6-1.2l0,0
	c0,0-0.1,1.2-0.2,1.2V201.2z M376.7,201.2h1.6v-6.2h-1.4l-1.6,2.7l-0.5,1.1l0,0c0,0,0.1-0.9,0.1-0.9v-2.8h-1.6v6.2h1.5l1.5-2.5
	l0.6-1.2l0,0c0,0-0.1,1.2-0.2,1.2V201.2z M371.3,199.2c-0.3,0.9-1.8,0.7-1.8-0.1V197c0-0.8,1.4-1,1.8-0.2l1.3-0.5
	c-0.5-1.1-1.4-1.4-2.2-1.4c-1.3,0-2.5,0.7-2.5,2.1v2.2c0,1.4,1.2,2.1,2.5,2.1c0.8,0,1.7-0.4,2.2-1.4L371.3,199.2z M366.2,199.2
	c-0.3,0.9-1.8,0.7-1.8-0.1V197c0-0.8,1.4-1,1.8-0.2l1.3-0.5c-0.5-1.1-1.4-1.4-2.2-1.4c-1.3,0-2.5,0.7-2.5,2.1v2.2
	c0,1.4,1.2,2.1,2.5,2.1c0.8,0,1.7-0.4,2.2-1.4L366.2,199.2z M358.6,197c0-0.5,0.5-0.7,1-0.7c0.5,0,1,0.2,1,0.7v2.1
	c0,0.4-0.5,0.7-1,0.7c-0.5,0-1-0.2-1-0.7V197z M357,199.1c0,1.4,1.3,2.1,2.6,2.1c1.3,0,2.6-0.7,2.6-2.1V197c0-1.4-1.3-2.1-2.6-2.1
	c-1.3,0-2.6,0.7-2.6,2.1V199.1z M353.3,198v-1.5h0.9c1,0,1,1.6,0,1.5H353.3z M351.7,201.2h1.6v-1.8h0.9c1.5,0,2.3-1.1,2.3-2.2
	c0-1.1-0.8-2.2-2.3-2.2h-2.5V201.2z M347.1,199.8h-1.5c0.2-0.4,0.2-1,0.3-1.4l0.1-1.9h1.1V199.8z M344.8,202.4v-1.3h3.1v1.3h1.6
	v-2.7h-0.8v-4.8h-4.1l-0.1,2.1c-0.1,1.4,0,2.7-1.3,2.7v2.7H344.8z M339.1,198.8h1.8v2.4h1.6v-6.2h-1.6v2.4h-1.8v-2.4h-1.6v6.2h1.6
	V198.8z M333.1,197c0-0.5,0.5-0.7,1-0.7c0.5,0,1,0.2,1,0.7v2.1c0,0.4-0.5,0.7-1,0.7s-1-0.2-1-0.7V197z M331.5,199.1
	c0,1.4,1.3,2.1,2.6,2.1c1.3,0,2.6-0.7,2.6-2.1V197c0-1.4-1.3-2.1-2.6-2.1c-1.3,0-2.6,0.7-2.6,2.1V199.1z M329.4,198.6
	c0,0.5-0.5,0.6-1,0.6v-2.4c0.5,0,1,0.1,1,0.6V198.6z M325.9,197.5c0-0.5,0.5-0.6,1-0.6v2.4c-0.5,0-1-0.1-1-0.6V197.5z M326.9,201.2
	h1.5v-0.5c1.3,0,2.6-0.6,2.6-2.1v-1.1c0-1.5-1.3-2.1-2.6-2.1v-0.5h-1.5v0.5c-1.3,0-2.6,0.6-2.6,2.1v1.1c0,1.5,1.3,2.1,2.6,2.1V201.2
	z M382.8,190.6h1.6v-6.2h-1.4l-1.6,2.7l-0.5,1.1l0,0c0,0,0.1-0.9,0.1-0.9v-2.8h-1.6v6.2h1.5l1.5-2.5l0.6-1.2l0,0
	c0,0-0.1,1.2-0.2,1.2V190.6z M381.8,183.9c0.8,0,1.6-0.5,1.6-1.5h-1.2c0,0.2-0.2,0.4-0.4,0.4c-0.2,0-0.4-0.1-0.4-0.4h-1.2
	C380.2,183.3,381,183.9,381.8,183.9z M372.7,189.2v-1.5h0.9c0.4,0,0.7,0.2,0.7,0.7c0,0.4-0.2,0.8-0.7,0.8H372.7z M378.2,184.4h-1.6
	v6.2h1.6V184.4z M375.9,188.5c0-1.2-0.6-2-2.2-2h-0.9v-2.1h-1.6v6.2h2.6C375.1,190.6,375.9,189.7,375.9,188.5z M366.7,188.3h1.8v2.4
	h1.6v-6.2h-1.6v2.4h-1.8v-2.4h-1.6v6.2h1.6V188.3z M360.7,188.3h1.8v2.4h1.6v-6.2h-1.6v2.4h-1.8v-2.4h-1.6v6.2h1.6V188.3z
	 M354.6,186.4c0-0.5,0.5-0.7,1-0.7c0.5,0,1,0.2,1,0.7v2.1c0,0.4-0.5,0.7-1,0.7s-1-0.2-1-0.7V186.4z M353,188.6
	c0,1.4,1.3,2.1,2.6,2.1c1.3,0,2.6-0.7,2.6-2.1v-2.1c0-1.4-1.3-2.1-2.6-2.1c-1.3,0-2.6,0.7-2.6,2.1V188.6z M350.5,190.6h1.6v-6.2
	h-1.4l-1.6,2.7l-0.5,1.1l0,0c0,0,0.1-0.9,0.1-0.9v-2.8h-1.6v6.2h1.5l1.5-2.5l0.6-1.2l0,0c0,0-0.1,1.2-0.2,1.2V190.6z M345,188.7
	c-0.3,0.9-1.8,0.7-1.8-0.1v-2.2c0-0.8,1.4-1,1.8-0.2l1.3-0.5c-0.5-1.1-1.4-1.4-2.2-1.4c-1.3,0-2.5,0.7-2.5,2.1v2.2
	c0,1.4,1.2,2.1,2.5,2.1c0.8,0,1.7-0.4,2.2-1.4L345,188.7z M337.4,188.3h1.8v2.4h1.6v-6.2h-1.6v2.4h-1.8v-2.4h-1.6v6.2h1.6V188.3z
	 M332.2,185.8h2.8v-1.5h-4.3v6.2h4.3v-1.5h-2.8v-0.9h2.5v-1.4h-2.5V185.8z M326.2,185.9h1.8v4.7h1.6v-6.2h-4.9v6.2h1.6V185.9z"/>
<path class="st1" d="M495.1,157l0,0.2c1.1,5,5.6,8.8,10.9,8.8c6.2,0,11.2-5,11.2-11.2s-5-11.2-11.2-11.2s-11.2,5-11.2,11.2
	C494.8,155.5,494.9,156.2,495.1,157z M478.8,143.4h-9.6v-8.7h22.1l2,4.6c3.5-2.9,7.9-4.6,12.8-4.6c11.1,0,20,9,20,20
	c0,11.1-9,20-20,20c-5.4,0-10.2-2.1-13.8-5.5c-0.3,0.4-0.7,0.8-1.1,1.2c-2.9,2.9-6.3,4.3-10.3,4.3c-4,0-7.5-1.4-10.4-4.3
	c-2.9-2.9-4.3-6.3-4.3-10.4h8.8c0,1.6,0.6,3,1.7,4.1c1.2,1.1,2.5,1.7,4.1,1.7c1.5,0,2.9-0.6,4.1-1.7c1.2-1.1,1.8-2.5,1.8-4.1
	c0-1.6-0.6-3-1.8-4.2c-1.2-1.2-2.5-1.7-4.1-1.7c-1.3,0-2.6,0.5-3.7,1.4l-5.5-6.7L478.8,143.4z"/>
<path class="st2" d="M495.1,157l0,0.2c1.1,5,5.6,8.8,10.9,8.8c6.2,0,11.2-5,11.2-11.2s-5-11.2-11.2-11.2s-11.2,5-11.2,11.2
	C494.8,155.5,494.9,156.2,495.1,157z M478.8,143.4h-9.6v-8.7h22.1l2,4.6c3.5-2.9,7.9-4.6,12.8-4.6c11.1,0,20,9,20,20
	c0,11.1-9,20-20,20c-5.4,0-10.2-2.1-13.8-5.5c-0.3,0.4-0.7,0.8-1.1,1.2c-2.9,2.9-6.3,4.3-10.3,4.3c-4,0-7.5-1.4-10.4-4.3
	c-2.9-2.9-4.3-6.3-4.3-10.4h8.8c0,1.6,0.6,3,1.7,4.1c1.2,1.1,2.5,1.7,4.1,1.7c1.5,0,2.9-0.6,4.1-1.7c1.2-1.1,1.8-2.5,1.8-4.1
	c0-1.6-0.6-3-1.8-4.2c-1.2-1.2-2.5-1.7-4.1-1.7c-1.3,0-2.6,0.5-3.7,1.4l-5.5-6.7L478.8,143.4z"/>
<polygon class="st3" points="480.6,148.7 492,139.6 492,139.6 513,122.9 519.7,131.2 508.2,140.3 508.2,140.3 487.2,157.1 "/>
<polygon class="st4" points="496.9,145.4 506.3,137.8 506.3,137.8 514.1,131.6 519.6,138.4 519.6,138.4 502.3,152.2 "/>
<polygon class="st5" points="472.2,148.9 481.6,141.4 481.6,141.4 489.4,135.1 494.8,141.9 494.8,141.9 477.6,155.7 "/>
<path d="M504.7,185.7v-2.3h1.4c1.4,0,1.4,2.4,0,2.3H504.7z M502.3,190.6h2.4v-2.8h1.4c2.3,0,3.4-1.7,3.4-3.4c0-1.7-1.1-3.3-3.5-3.3
	h-3.8V190.6z M498.8,186.7c0,0.8-0.7,1-1.5,1v-3.6c0.8,0,1.5,0.2,1.5,1V186.7z M493.6,185.1c0-0.8,0.7-1,1.5-1v3.6
	c-0.8,0-1.5-0.2-1.5-1V185.1z M495,190.6h2.3v-0.8c2,0,3.9-0.9,3.9-3.1v-1.6c0-2.3-1.9-3.1-3.9-3.1v-0.8H495v0.8
	c-2,0-3.9,0.9-3.9,3.1v1.6c0,2.3,1.9,3.1,3.9,3.1V190.6z M485,183.4h2.7v7.2h2.4v-9.5h-7.5v9.5h2.4V183.4z"/>
<path class="st1" d="M636.8,157l0,0.2c1.1,5,5.6,8.8,10.9,8.8c6.2,0,11.2-5,11.2-11.2s-5-11.2-11.2-11.2s-11.2,5-11.2,11.2
	C636.6,155.5,636.6,156.2,636.8,157z M620.6,143.4h-9.6v-8.7H633l2,4.6c3.5-2.9,7.9-4.6,12.8-4.6c11.1,0,20,9,20,20
	c0,11.1-9,20-20,20c-5.4,0-10.2-2.1-13.8-5.5c-0.3,0.4-0.7,0.8-1.1,1.2c-2.9,2.9-6.3,4.3-10.3,4.3c-4,0-7.5-1.4-10.4-4.3
	c-2.9-2.9-4.3-6.3-4.3-10.4h8.8c0,1.6,0.6,3,1.7,4.1c1.2,1.1,2.5,1.7,4.1,1.7c1.5,0,2.9-0.6,4.1-1.7c1.2-1.1,1.8-2.5,1.8-4.1
	c0-1.6-0.6-3-1.8-4.2c-1.2-1.2-2.5-1.7-4.1-1.7c-1.3,0-2.6,0.5-3.7,1.4l-5.5-6.7L620.6,143.4z"/>
<path class="st2" d="M636.8,157l0,0.2c1.1,5,5.6,8.8,10.9,8.8c6.2,0,11.2-5,11.2-11.2s-5-11.2-11.2-11.2s-11.2,5-11.2,11.2
	C636.6,155.5,636.6,156.2,636.8,157z M620.6,143.4h-9.6v-8.7H633l2,4.6c3.5-2.9,7.9-4.6,12.8-4.6c11.1,0,20,9,20,20
	c0,11.1-9,20-20,20c-5.4,0-10.2-2.1-13.8-5.5c-0.3,0.4-0.7,0.8-1.1,1.2c-2.9,2.9-6.3,4.3-10.3,4.3c-4,0-7.5-1.4-10.4-4.3
	c-2.9-2.9-4.3-6.3-4.3-10.4h8.8c0,1.6,0.6,3,1.7,4.1c1.2,1.1,2.5,1.7,4.1,1.7c1.5,0,2.9-0.6,4.1-1.7c1.2-1.1,1.8-2.5,1.8-4.1
	c0-1.6-0.6-3-1.8-4.2c-1.2-1.2-2.5-1.7-4.1-1.7c-1.3,0-2.6,0.5-3.7,1.4l-5.5-6.7L620.6,143.4z"/>
<polygon class="st3" points="622.3,148.7 633.8,139.6 633.8,139.6 654.8,122.9 661.4,131.2 649.9,140.3 649.9,140.3 629,157.1 "/>
<polygon class="st4" points="638.6,145.4 648,137.8 648,137.8 655.8,131.6 661.3,138.4 661.3,138.4 644.1,152.2 "/>
<polygon class="st5" points="613.9,148.9 623.3,141.4 623.3,141.4 631.1,135.1 636.6,141.9 636.6,141.9 619.3,155.7 "/>
<path d="M666.2,201.2h1.6v-6.2h-1.4l-1.6,2.7l-0.5,1.1l0,0c0,0,0.1-0.9,0.1-0.9v-2.8h-1.6v6.2h1.5l1.5-2.5l0.6-1.2l0,0
	c0,0-0.1,1.2-0.2,1.2V201.2z M660.2,201.2h1.6v-6.2h-1.4l-1.6,2.7l-0.5,1.1l0,0c0,0,0.1-0.9,0.1-0.9v-2.8h-1.6v6.2h1.5l1.5-2.5
	l0.6-1.2l0,0c0,0-0.1,1.2-0.2,1.2V201.2z M654.8,199.2c-0.3,0.9-1.8,0.7-1.8-0.1V197c0-0.8,1.4-1,1.8-0.2l1.3-0.5
	c-0.5-1.1-1.4-1.4-2.2-1.4c-1.3,0-2.5,0.7-2.5,2.1v2.2c0,1.4,1.2,2.1,2.5,2.1c0.8,0,1.7-0.4,2.2-1.4L654.8,199.2z M649.6,199.2
	c-0.3,0.9-1.8,0.7-1.8-0.1V197c0-0.8,1.4-1,1.8-0.2l1.3-0.5c-0.5-1.1-1.4-1.4-2.2-1.4c-1.3,0-2.5,0.7-2.5,2.1v2.2
	c0,1.4,1.2,2.1,2.5,2.1c0.8,0,1.7-0.4,2.2-1.4L649.6,199.2z M642,197c0-0.5,0.5-0.7,1-0.7c0.5,0,1,0.2,1,0.7v2.1
	c0,0.4-0.5,0.7-1,0.7c-0.5,0-1-0.2-1-0.7V197z M640.4,199.1c0,1.4,1.3,2.1,2.6,2.1c1.3,0,2.6-0.7,2.6-2.1V197c0-1.4-1.3-2.1-2.6-2.1
	c-1.3,0-2.6,0.7-2.6,2.1V199.1z M636.7,198v-1.5h0.9c1,0,1,1.6,0,1.5H636.7z M635.1,201.2h1.6v-1.8h0.9c1.5,0,2.3-1.1,2.3-2.2
	c0-1.1-0.8-2.2-2.3-2.2h-2.5V201.2z M630.5,199.8h-1.5c0.2-0.4,0.2-1,0.3-1.4l0.1-1.9h1.1V199.8z M628.2,202.4v-1.3h3.1v1.3h1.6
	v-2.7h-0.8v-4.8H628l-0.1,2.1c-0.1,1.4,0,2.7-1.3,2.7v2.7H628.2z M622.6,198.8h1.8v2.4h1.6v-6.2h-1.6v2.4h-1.8v-2.4H621v6.2h1.6
	V198.8z M616.6,197c0-0.5,0.5-0.7,1-0.7c0.5,0,1,0.2,1,0.7v2.1c0,0.4-0.5,0.7-1,0.7c-0.5,0-1-0.2-1-0.7V197z M615,199.1
	c0,1.4,1.3,2.1,2.6,2.1c1.3,0,2.6-0.7,2.6-2.1V197c0-1.4-1.3-2.1-2.6-2.1c-1.3,0-2.6,0.7-2.6,2.1V199.1z M612.8,198.6
	c0,0.5-0.5,0.6-1,0.6v-2.4c0.5,0,1,0.1,1,0.6V198.6z M609.4,197.5c0-0.5,0.5-0.6,1-0.6v2.4c-0.5,0-1-0.1-1-0.6V197.5z M610.3,201.2
	h1.5v-0.5c1.3,0,2.6-0.6,2.6-2.1v-1.1c0-1.5-1.3-2.1-2.6-2.1v-0.5h-1.5v0.5c-1.3,0-2.6,0.6-2.6,2.1v1.1c0,1.5,1.3,2.1,2.6,2.1V201.2
	z M666.2,190.6h1.6v-6.2h-1.4l-1.6,2.7l-0.5,1.1l0,0c0,0,0.1-0.9,0.1-0.9v-2.8h-1.6v6.2h1.5l1.5-2.5l0.6-1.2l0,0
	c0,0-0.1,1.2-0.2,1.2V190.6z M665.2,183.9c0.8,0,1.6-0.5,1.6-1.5h-1.2c0,0.2-0.2,0.4-0.4,0.4c-0.2,0-0.4-0.1-0.4-0.4h-1.2
	C663.6,183.3,664.4,183.9,665.2,183.9z M656.2,189.2v-1.5h0.9c0.4,0,0.7,0.2,0.7,0.7c0,0.4-0.2,0.8-0.7,0.8H656.2z M661.7,184.4
	h-1.6v6.2h1.6V184.4z M659.4,188.5c0-1.2-0.6-2-2.2-2h-0.9v-2.1h-1.6v6.2h2.6C658.6,190.6,659.4,189.7,659.4,188.5z M650.2,188.3
	h1.8v2.4h1.6v-6.2H652v2.4h-1.8v-2.4h-1.6v6.2h1.6V188.3z M644.1,188.3h1.8v2.4h1.6v-6.2h-1.6v2.4h-1.8v-2.4h-1.6v6.2h1.6V188.3z
	 M638.1,186.4c0-0.5,0.5-0.7,1-0.7c0.5,0,1,0.2,1,0.7v2.1c0,0.4-0.5,0.7-1,0.7c-0.5,0-1-0.2-1-0.7V186.4z M636.5,188.6
	c0,1.4,1.3,2.1,2.6,2.1c1.3,0,2.6-0.7,2.6-2.1v-2.1c0-1.4-1.3-2.1-2.6-2.1c-1.3,0-2.6,0.7-2.6,2.1V188.6z M634,190.6h1.6v-6.2h-1.4
	l-1.6,2.7l-0.5,1.1l0,0c0,0,0.1-0.9,0.1-0.9v-2.8h-1.6v6.2h1.5l1.5-2.5l0.6-1.2l0,0c0,0-0.1,1.2-0.2,1.2V190.6z M628.5,188.7
	c-0.3,0.9-1.8,0.7-1.8-0.1v-2.2c0-0.8,1.4-1,1.8-0.2l1.3-0.5c-0.5-1.1-1.4-1.4-2.2-1.4c-1.3,0-2.5,0.7-2.5,2.1v2.2
	c0,1.4,1.2,2.1,2.5,2.1c0.8,0,1.7-0.4,2.2-1.4L628.5,188.7z M620.9,188.3h1.8v2.4h1.6v-6.2h-1.6v2.4h-1.8v-2.4h-1.6v6.2h1.6V188.3z
	 M615.6,185.8h2.8v-1.5H614v6.2h4.3v-1.5h-2.8v-0.9h2.5v-1.4h-2.5V185.8z M609.6,185.9h1.8v4.7h1.6v-6.2H608v6.2h1.6V185.9z"/>
<path d="M682.8,169.3l-0.6,1.5l1.7,0.7l1.2,0.4l0,0l-2.3,0l-0.4,1l1.7,1.6l0,0l-1.1-0.6l-1.7-0.7l-0.6,1.5l5.8,2.3l0.6-1.5l-2.3-2.4
	l3.3-0.1l0.6-1.5L682.8,169.3z M687.9,165.9c0.4,0.1,0.6,0.6,0.5,1.1c-0.1,0.5-0.4,1-0.9,0.8l-2.1-0.5c-0.4-0.1-0.5-0.6-0.4-1.1
	c0.1-0.5,0.4-0.9,0.9-0.8L687.9,165.9z M686.2,163.9c-1.4-0.3-2.4,0.8-2.7,2c-0.3,1.3,0.1,2.7,1.5,3l2.1,0.5c1.4,0.3,2.4-0.8,2.7-2
	c0.3-1.3-0.1-2.7-1.5-3L686.2,163.9z M686,160.8l0.2-1.4c0.4,0.2,0.9,0.4,1.4,0.4l1.9,0.4l-0.1,1.1L686,160.8z M683.6,158.2l1.2,0.2
	l-0.4,3l-1.2-0.2l-0.2,1.6l2.7,0.3l0.1-0.8l4.8,0.6l0.5-4l-2.1-0.4c-1.4-0.3-2.7-0.4-2.6-1.6l-2.7-0.3L683.6,158.2z M684.9,151.6
	l0.1,1.6l2.3-0.1l0.1,0.1l-2.3,1.5l0.1,2l3.1-2.3l3.1,2.1l-0.1-1.9l-2.4-1.5l2.3-0.1l-0.1-1.6l-2.3,0.1l2.3-1.6l-0.1-1.9l-3,2.3
	l-3.2-2.1l0.1,2l2.4,1.4l-0.1,0.1L684.9,151.6z M686.5,144.5l1.9,0.1l0,0l-1.7,0.8L686.5,144.5z M690.3,145l-0.3-1.4l-6.5-1l0.3,1.7
	l1.3,0.2l0.3,1.6l-1.2,0.6l0.3,1.7L690.3,145z M686,137.9l2.2-0.8l-0.5-1.5l-5.9,2.1l0.5,1.5l2-0.7l0.1,0l-1.6,2.3l0.7,1.9l2.2-3.4
	l3.7,1.3l-0.7-1.9L686,137.9z M683,130.4c0.4-0.2,0.9,0.1,1.1,0.6c0.2,0.5,0.3,1-0.2,1.2l-1.9,1c-0.4,0.2-0.8-0.1-1.1-0.6
	s-0.3-1,0.2-1.2L683,130.4z M680.4,129.9c-1.3,0.6-1.3,2.1-0.8,3.3c0.6,1.2,1.8,2,3.1,1.4l1.9-1c1.3-0.6,1.3-2.1,0.8-3.3
	c-0.6-1.2-1.8-2-3.1-1.4L680.4,129.9z M680.1,124.7l-1.1,0.8l-0.5-0.8c-0.3-0.4-0.2-0.8,0.1-1c0.4-0.3,0.7-0.2,1,0.2L680.1,124.7z
	 M677.2,128.8l5.1-3.6l-1.5-2c-0.8-1.2-2-1.5-3-0.7c-1,0.7-1,1.4-0.8,2.2l-2.9-0.2l1.1,1.6l2.7,0.1l0.1,0.2l-1.7,1.2L677.2,128.8z
	 M674.6,122.2c-0.9,0.3-1.7-0.8-1.1-1.3l1.6-1.5c0.6-0.5,1.6,0.4,1.4,1.2l1.3,0.6c0.5-1.1,0.1-2-0.5-2.6c-0.9-0.9-2.2-1.3-3.3-0.3
	l-1.6,1.5c-1,1-0.7,2.4,0.1,3.3c0.5,0.6,1.5,1,2.6,0.7L674.6,122.2z M665.9,116.7l1.2,1l1.2-1.4l0.7-1l0,0l-0.8,2.2l0.8,0.7l2-1.1
	l0,0l-0.9,0.9l-1.2,1.4l1.2,1l4.1-4.7l-1.2-1l-3,1.4l1-3.2l-1.2-1L665.9,116.7z M663.7,115.4l1.3,0.9l3.4-5.2l-1.2-0.8l-2.8,1.4
	l-1,0.7l0,0c0,0,0.6-0.7,0.6-0.7l1.5-2.4l-1.3-0.9l-3.4,5.2l1.3,0.8l2.6-1.2l1.2-0.7l0,0c0,0-0.8,0.9-0.8,0.9L663.7,115.4z
	 M662.2,108.8l0.6-1.4l-4.5-2l-0.6,1.4l1.5,0.7l-1.9,4.3l1.5,0.7l1.9-4.3L662.2,108.8z M653.4,105.8c0.1-0.4,0.7-0.5,1.2-0.4
	c0.5,0.2,0.9,0.5,0.8,1l-0.7,2c-0.1,0.4-0.7,0.5-1.2,0.3c-0.5-0.2-0.9-0.5-0.7-1L653.4,105.8z M651.2,107.3
	c-0.5,1.4,0.6,2.4,1.8,2.9c1.2,0.4,2.7,0.1,3.1-1.2l0.7-2c0.5-1.4-0.6-2.4-1.8-2.9c-1.2-0.4-2.7-0.2-3.1,1.2L651.2,107.3z
	 M647.3,107.1l0.3-1.4l0.9,0.2c0.5,0.1,0.6,0.4,0.5,0.8c-0.1,0.4-0.3,0.7-0.9,0.6L647.3,107.1z M650.5,107.2c0.3-1.2-0.1-2-1.8-2.4
	l-0.9-0.2l0.2-0.9l2.6,0.6l0.3-1.3l-4.2-1l-1.4,6.1l2.5,0.6C649.2,109,650.2,108.4,650.5,107.2z M641.8,105.1l0.6-1.8l0,0l0.3,1.9
	L641.8,105.1z M643.2,101.6l-1.4-0.1l-2.6,6.1l1.7,0.1l0.5-1.2l1.7,0.1l0.3,1.3l1.7,0.1L643.2,101.6z M638.1,104.2
	c0.4-0.2,0.7-0.8,0.6-1.2c0-1.1-0.8-1.8-2.2-1.7c-0.9,0-1.6,0.4-2,1l0.9,0.8c0.2-0.2,0.7-0.5,1.1-0.5c0.5,0,0.8,0.2,0.8,0.6
	c0,0.4-0.3,0.7-0.7,0.7l-0.9,0l0,1.1l0.9,0c0.5,0,0.8,0.2,0.8,0.7c0,0.4-0.3,0.7-1,0.7c-0.4,0-0.8-0.2-1.2-0.6l-1,0.8
	c0.5,0.8,1.4,1.2,2.3,1.2c1.6,0,2.5-0.8,2.4-2C639,105.1,638.7,104.5,638.1,104.2z M632.3,107l-1.6,0.2l-0.5,2.3l1.5-0.2L632.3,107z
	 M626.4,104.8l-1.5-1.8l-1.8,0.4l2.4,2.7l-1,3.4l1.8-0.4l0.6-2.3l1.5,1.8l1.8-0.4l-2.4-2.6l1-3.4l-1.8,0.4L626.4,104.8z M620.1,106
	l2.6-0.9l-0.5-1.4l-4.1,1.4l2.1,5.9l4.1-1.4l-0.5-1.4l-2.6,0.9l-0.3-0.9l2.4-0.8l-0.4-1.3l-2.4,0.8L620.1,106z M617.4,110
	c0.1,0.9-1.3,1.4-1.6,0.7l-1-1.9c-0.3-0.7,0.8-1.5,1.5-1l0.9-1c-0.9-0.8-1.9-0.6-2.6-0.3c-1.1,0.6-1.9,1.8-1.3,3l1,1.9
	c0.6,1.3,2.1,1.4,3.2,0.8c0.7-0.4,1.4-1.1,1.4-2.3L617.4,110z M611.4,114l-0.7-1.1l0.8-0.5c0.8-0.5,1.5,0.6,0.7,1.1L611.4,114z
	 M610.1,112l-0.6-0.9l0.8-0.5c0.7-0.4,1.2,0.5,0.6,0.9L610.1,112z M612.3,110c-0.6-1-1.7-1.2-2.7-0.5l-2.1,1.3l3.4,5.3l2.1-1.4
	c1.2-0.7,1.4-1.6,1-2.6c-0.2-0.4-0.7-1.1-1.7-1C612.5,110.7,612.4,110.2,612.3,110z M604.4,115.1l0.9,1.1l-0.7,0.6
	c-0.4,0.3-0.8,0.2-1-0.1c-0.3-0.3-0.2-0.7,0.1-1L604.4,115.1z M608.7,117.6l-4.1-4.7l-1.9,1.6c-1.1,0.9-1.3,2.1-0.5,3.1
	c0.8,0.9,1.5,0.9,2.2,0.6l0,3l1.5-1.3l-0.1-2.7l0.2-0.2l1.4,1.6L608.7,117.6z M599,120.3l0.8-0.9l3.6,3.1l1-1.2l-4.7-4.1l-2.7,3.1
	l1.5,1.5c1,1,2.1,1.8,1.2,2.7l1.1,1c1.5-1.4,0.7-2.9-0.3-4L599,120.3z M597.9,127l-0.8,1.2c-0.3-0.4-0.7-0.7-1.1-1l-1.5-1.1l0.6-0.9
	L597.9,127z M598.9,130.4l-1.1-0.7l1.7-2.6l1.1,0.7l0.9-1.3l-2.2-1.5l-0.4,0.6l-4-2.6l-2.2,3.4l1.7,1.3c1.1,0.9,2.3,1.5,1.6,2.6
	l2.2,1.5L598.9,130.4z M593.5,138.3l0.6-1.4l-1.6-0.7l-1.2-0.4l0,0l2.3,0.1l0.4-1l-1.6-1.6l0,0l1.1,0.6l1.6,0.7l0.6-1.4l-5.7-2.6
	l-0.6,1.4l2.2,2.5l-3.3,0l-0.6,1.4L593.5,138.3z M587.9,140.5l0.7-2.6l-1.4-0.4l-1.2,4.2l6,1.7l1.2-4.2l-1.4-0.4l-0.7,2.6l-0.9-0.3
	l0.7-2.4l-1.3-0.4l-0.7,2.4L587.9,140.5z M588.7,146.5l-1.7-0.8l0,0l1.9-0.1L588.7,146.5z M585.4,144.7l-0.3,1.4l5.7,3.3l0.3-1.7
	l-1.2-0.6l0.3-1.6l1.3-0.2l0.3-1.7L585.4,144.7z M586.3,148.5l-1.5-0.1l-0.4,4.9l1.5,0.1l0.1-1.7l4.7,0.4l0.1-1.6l-4.7-0.4
	L586.3,148.5z M586.6,157.9c-0.5,0-0.7-0.5-0.7-1c0-0.5,0.2-1,0.7-1.1l2.1-0.1c0.4,0,0.7,0.5,0.7,1c0,0.5-0.2,1-0.6,1L586.6,157.9z
	 M588.7,159.4c1.4,0,2.1-1.4,2.1-2.7c0-1.3-0.8-2.6-2.2-2.5l-2.1,0.1c-1.4,0-2.1,1.4-2.1,2.7c0,1.3,0.8,2.6,2.2,2.5L588.7,159.4z
	 M590,163.2l-1.4,0.3l-0.2-0.9c-0.1-0.5,0.1-0.8,0.5-0.8c0.4-0.1,0.8,0,0.8,0.6L590,163.2z M588.8,160.2c-1.2,0.2-1.8,0.9-1.5,2.6
	l0.2,0.9l-1,0.2l-0.5-2.6l-1.3,0.2l0.8,4.2l6.1-1.1l-0.5-2.5C591,160.7,590,160,588.8,160.2z M590.1,169l-1.9,0.1l0,0l1.6-0.9
	L590.1,169z M586.3,168.8l0.4,1.4l6.6,0.4l-0.5-1.6l-1.3,0l-0.4-1.6l1.1-0.7l-0.5-1.6L586.3,168.8z M591.4,174.3l-1.4,0.6l-0.3-0.9
	c-0.4-0.9,1.1-1.5,1.4-0.6L591.4,174.3z M595,174.6l-0.6-1.5l-1.7,0.7l-0.3-0.9c-0.6-1.4-1.9-1.7-2.9-1.3c-1,0.4-1.8,1.5-1.2,2.9
	l0.9,2.3L595,174.6z"/>
<path class="st1" d="M778.5,157l0,0.2c1.1,5,5.6,8.8,10.9,8.8c6.2,0,11.2-5,11.2-11.2s-5-11.2-11.2-11.2c-6.2,0-11.2,5-11.2,11.2
	C778.3,155.5,778.4,156.2,778.5,157z M762.3,143.4h-9.6v-8.7h22.1l2,4.6c3.5-2.9,7.9-4.6,12.8-4.6c11.1,0,20,9,20,20
	c0,11.1-9,20-20,20c-5.4,0-10.2-2.1-13.8-5.5c-0.3,0.4-0.7,0.8-1.1,1.2c-2.9,2.9-6.3,4.3-10.3,4.3c-4,0-7.5-1.4-10.4-4.3
	c-2.9-2.9-4.3-6.3-4.3-10.4h8.8c0,1.6,0.6,3,1.7,4.1c1.2,1.1,2.5,1.7,4.1,1.7c1.5,0,2.9-0.6,4.1-1.7c1.2-1.1,1.8-2.5,1.8-4.1
	c0-1.6-0.6-3-1.8-4.2c-1.2-1.2-2.5-1.7-4.1-1.7c-1.3,0-2.6,0.5-3.7,1.4l-5.5-6.7L762.3,143.4z"/>
<path class="st2" d="M778.5,157l0,0.2c1.1,5,5.6,8.8,10.9,8.8c6.2,0,11.2-5,11.2-11.2s-5-11.2-11.2-11.2c-6.2,0-11.2,5-11.2,11.2
	C778.3,155.5,778.4,156.2,778.5,157z M762.3,143.4h-9.6v-8.7h22.1l2,4.6c3.5-2.9,7.9-4.6,12.8-4.6c11.1,0,20,9,20,20
	c0,11.1-9,20-20,20c-5.4,0-10.2-2.1-13.8-5.5c-0.3,0.4-0.7,0.8-1.1,1.2c-2.9,2.9-6.3,4.3-10.3,4.3c-4,0-7.5-1.4-10.4-4.3
	c-2.9-2.9-4.3-6.3-4.3-10.4h8.8c0,1.6,0.6,3,1.7,4.1c1.2,1.1,2.5,1.7,4.1,1.7c1.5,0,2.9-0.6,4.1-1.7c1.2-1.1,1.8-2.5,1.8-4.1
	c0-1.6-0.6-3-1.8-4.2c-1.2-1.2-2.5-1.7-4.1-1.7c-1.3,0-2.6,0.5-3.7,1.4l-5.5-6.7L762.3,143.4z"/>
<polygon class="st3" points="764.1,148.7 775.5,139.6 775.5,139.6 796.5,122.9 803.1,131.2 791.7,140.3 791.7,140.3 770.7,157.1 "/>
<polygon class="st4" points="780.3,145.4 789.7,137.8 789.7,137.8 797.6,131.6 803,138.4 803,138.4 785.8,152.2 "/>
<polygon class="st5" points="755.6,148.9 765,141.4 765,141.4 772.9,135.1 778.3,141.9 778.3,141.9 761.1,155.7 "/>
<path class="st1" d="M807.9,201.2h1.6v-6.2h-1.4l-1.6,2.7l-0.5,1.1l0,0c0,0,0.1-0.9,0.1-0.9v-2.8h-1.6v6.2h1.5l1.5-2.5l0.6-1.2l0,0
	c0,0-0.1,1.2-0.2,1.2V201.2z M801.9,201.2h1.6v-6.2H802l-1.6,2.7l-0.5,1.1l0,0c0,0,0.1-0.9,0.1-0.9v-2.8h-1.6v6.2h1.5l1.5-2.5
	l0.6-1.2l0,0c0,0-0.2,1.2-0.2,1.2V201.2z M796.5,199.2c-0.3,0.9-1.8,0.7-1.8-0.1V197c0-0.8,1.4-1,1.8-0.2l1.3-0.5
	c-0.5-1.1-1.4-1.4-2.2-1.4c-1.3,0-2.5,0.7-2.5,2.1v2.2c0,1.4,1.2,2.1,2.5,2.1c0.8,0,1.7-0.4,2.2-1.4L796.5,199.2z M791.4,199.2
	c-0.3,0.9-1.8,0.7-1.8-0.1V197c0-0.8,1.4-1,1.8-0.2l1.3-0.5c-0.5-1.1-1.4-1.4-2.2-1.4c-1.3,0-2.5,0.7-2.5,2.1v2.2
	c0,1.4,1.2,2.1,2.5,2.1c0.8,0,1.7-0.4,2.2-1.4L791.4,199.2z M783.7,197c0-0.5,0.5-0.7,1-0.7c0.5,0,1,0.2,1,0.7v2.1
	c0,0.4-0.5,0.7-1,0.7c-0.5,0-1-0.2-1-0.7V197z M782.2,199.1c0,1.4,1.3,2.1,2.6,2.1c1.3,0,2.6-0.7,2.6-2.1V197c0-1.4-1.3-2.1-2.6-2.1
	c-1.3,0-2.6,0.7-2.6,2.1V199.1z M778.4,198v-1.5h0.9c1,0,1,1.6,0,1.5H778.4z M776.9,201.2h1.6v-1.8h0.9c1.5,0,2.3-1.1,2.3-2.2
	c0-1.1-0.8-2.2-2.3-2.2h-2.5V201.2z M772.3,199.8h-1.5c0.2-0.4,0.2-1,0.3-1.4l0.1-1.9h1.1V199.8z M770,202.4v-1.3h3.1v1.3h1.6v-2.7
	h-0.8v-4.8h-4.1l-0.1,2.1c-0.1,1.4,0,2.7-1.3,2.7v2.7H770z M764.3,198.8h1.8v2.4h1.6v-6.2h-1.6v2.4h-1.8v-2.4h-1.6v6.2h1.6V198.8z
	 M758.3,197c0-0.5,0.5-0.7,1-0.7c0.5,0,1,0.2,1,0.7v2.1c0,0.4-0.5,0.7-1,0.7s-1-0.2-1-0.7V197z M756.7,199.1c0,1.4,1.3,2.1,2.6,2.1
	c1.3,0,2.6-0.7,2.6-2.1V197c0-1.4-1.3-2.1-2.6-2.1c-1.3,0-2.6,0.7-2.6,2.1V199.1z M754.5,198.6c0,0.5-0.5,0.6-1,0.6v-2.4
	c0.5,0,1,0.1,1,0.6V198.6z M751.1,197.5c0-0.5,0.5-0.6,1-0.6v2.4c-0.5,0-1-0.1-1-0.6V197.5z M752.1,201.2h1.5v-0.5
	c1.3,0,2.6-0.6,2.6-2.1v-1.1c0-1.5-1.3-2.1-2.6-2.1v-0.5h-1.5v0.5c-1.3,0-2.6,0.6-2.6,2.1v1.1c0,1.5,1.3,2.1,2.6,2.1V201.2z
	 M807.9,190.6h1.6v-6.2h-1.4l-1.6,2.7l-0.5,1.1l0,0c0,0,0.1-0.9,0.1-0.9v-2.8h-1.6v6.2h1.5l1.5-2.5l0.6-1.2l0,0c0,0-0.1,1.2-0.2,1.2
	V190.6z M807,183.9c0.8,0,1.6-0.5,1.6-1.5h-1.2c0,0.2-0.2,0.4-0.4,0.4c-0.2,0-0.4-0.1-0.4-0.4h-1.2
	C805.4,183.3,806.1,183.9,807,183.9z M797.9,189.2v-1.5h0.9c0.4,0,0.7,0.2,0.7,0.7c0,0.4-0.2,0.8-0.7,0.8H797.9z M803.4,184.4h-1.6
	v6.2h1.6V184.4z M801.1,188.5c0-1.2-0.6-2-2.2-2h-0.9v-2.1h-1.6v6.2h2.6C800.3,190.6,801.1,189.7,801.1,188.5z M791.9,188.3h1.8v2.4
	h1.6v-6.2h-1.6v2.4h-1.8v-2.4h-1.6v6.2h1.6V188.3z M785.9,188.3h1.8v2.4h1.6v-6.2h-1.6v2.4h-1.8v-2.4h-1.6v6.2h1.6V188.3z
	 M779.8,186.4c0-0.5,0.5-0.7,1-0.7c0.5,0,1,0.2,1,0.7v2.1c0,0.4-0.5,0.7-1,0.7c-0.5,0-1-0.2-1-0.7V186.4z M778.2,188.6
	c0,1.4,1.3,2.1,2.6,2.1c1.3,0,2.6-0.7,2.6-2.1v-2.1c0-1.4-1.3-2.1-2.6-2.1c-1.3,0-2.6,0.7-2.6,2.1V188.6z M775.7,190.6h1.6v-6.2
	h-1.4l-1.6,2.7l-0.5,1.1l0,0c0,0,0.1-0.9,0.1-0.9v-2.8h-1.6v6.2h1.5l1.5-2.5l0.6-1.2l0,0c0,0-0.1,1.2-0.2,1.2V190.6z M770.2,188.7
	c-0.3,0.9-1.8,0.7-1.8-0.1v-2.2c0-0.8,1.4-1,1.8-0.2l1.3-0.5c-0.5-1.1-1.4-1.4-2.2-1.4c-1.3,0-2.5,0.7-2.5,2.1v2.2
	c0,1.4,1.2,2.1,2.5,2.1c0.8,0,1.7-0.4,2.2-1.4L770.2,188.7z M762.6,188.3h1.8v2.4h1.6v-6.2h-1.6v2.4h-1.8v-2.4H761v6.2h1.6V188.3z
	 M757.3,185.8h2.8v-1.5h-4.3v6.2h4.3v-1.5h-2.8v-0.9h2.5v-1.4h-2.5V185.8z M751.4,185.9h1.8v4.7h1.6v-6.2h-4.9v6.2h1.6V185.9z"/>
<path class="st1" d="M824.5,169.3l-0.6,1.5l1.7,0.7l1.2,0.4l0,0l-2.3,0l-0.4,1l1.7,1.6l0,0l-1.1-0.6l-1.7-0.7l-0.6,1.5l5.8,2.3
	l0.6-1.5l-2.3-2.4l3.3-0.1l0.6-1.5L824.5,169.3z M829.6,165.9c0.4,0.1,0.6,0.6,0.5,1.1c-0.1,0.5-0.4,1-0.9,0.8l-2.1-0.5
	c-0.4-0.1-0.5-0.6-0.4-1.1c0.1-0.5,0.4-0.9,0.9-0.8L829.6,165.9z M827.9,163.9c-1.4-0.3-2.4,0.8-2.7,2c-0.3,1.3,0.1,2.7,1.5,3
	l2.1,0.5c1.4,0.3,2.4-0.8,2.7-2c0.3-1.3-0.1-2.7-1.5-3L827.9,163.9z M827.7,160.8l0.2-1.4c0.4,0.2,0.9,0.4,1.4,0.4l1.9,0.4l-0.1,1.1
	L827.7,160.8z M825.3,158.2l1.2,0.2l-0.4,3l-1.2-0.2l-0.2,1.6l2.7,0.3l0.1-0.8l4.8,0.6l0.5-4l-2.1-0.4c-1.4-0.3-2.7-0.4-2.6-1.6
	l-2.7-0.3L825.3,158.2z M826.6,151.6l0.1,1.6l2.3-0.1l0.1,0.1l-2.3,1.5l0.1,2l3.1-2.3l3.1,2.1l-0.1-1.9l-2.4-1.5l2.3-0.1l-0.1-1.6
	l-2.3,0.1l2.3-1.6l-0.1-1.9l-3,2.3l-3.2-2.1l0.1,2l2.4,1.4l-0.1,0.1L826.6,151.6z M828.3,144.5l1.9,0.1l0,0l-1.7,0.8L828.3,144.5z
	 M832,145l-0.3-1.4l-6.5-1l0.3,1.7l1.3,0.2l0.3,1.6l-1.2,0.6l0.3,1.7L832,145z M827.7,137.9l2.2-0.8l-0.5-1.5l-5.9,2.1l0.5,1.5
	l2-0.7l0.1,0l-1.6,2.3l0.7,1.9l2.2-3.4l3.7,1.3l-0.7-1.9L827.7,137.9z M824.7,130.4c0.4-0.2,0.9,0.1,1.1,0.6c0.2,0.5,0.3,1-0.2,1.2
	l-1.9,1c-0.4,0.2-0.8-0.1-1.1-0.6c-0.2-0.4-0.3-1,0.2-1.2L824.7,130.4z M822.1,129.9c-1.3,0.6-1.3,2.1-0.8,3.3
	c0.6,1.2,1.8,2,3.1,1.4l1.9-1c1.3-0.6,1.3-2.1,0.8-3.3c-0.6-1.2-1.8-2-3.1-1.4L822.1,129.9z M821.9,124.7l-1.1,0.8l-0.5-0.8
	c-0.3-0.4-0.2-0.8,0.1-1c0.4-0.3,0.7-0.2,1,0.2L821.9,124.7z M818.9,128.8l5.1-3.6l-1.5-2c-0.8-1.2-2-1.5-3-0.7
	c-1,0.7-1,1.4-0.8,2.2l-2.9-0.2l1.1,1.6l2.7,0.1l0.1,0.2l-1.7,1.2L818.9,128.8z M816.3,122.2c-0.9,0.3-1.7-0.8-1.1-1.3l1.6-1.5
	c0.6-0.5,1.6,0.4,1.4,1.2l1.3,0.6c0.5-1.1,0.1-2-0.5-2.6c-0.9-0.9-2.2-1.3-3.3-0.3l-1.6,1.5c-1,1-0.7,2.4,0.1,3.3
	c0.5,0.6,1.5,1,2.6,0.7L816.3,122.2z M807.7,116.7l1.2,1l1.2-1.4l0.7-1l0,0l-0.8,2.2l0.8,0.7l2-1.1l0,0l-0.9,0.9l-1.2,1.4l1.2,1
	l4.1-4.7l-1.2-1l-3,1.4l1-3.2l-1.2-1L807.7,116.7z M805.5,115.4l1.3,0.9l3.4-5.2l-1.2-0.8l-2.8,1.4l-1,0.7l0,0c0,0,0.6-0.7,0.6-0.7
	l1.5-2.4l-1.3-0.9l-3.4,5.2l1.3,0.8l2.6-1.2l1.2-0.7l0,0c0,0-0.8,0.9-0.8,0.9L805.5,115.4z M804,108.8l0.6-1.4l-4.5-2l-0.6,1.4
	l1.5,0.7l-1.9,4.3l1.5,0.7l1.9-4.3L804,108.8z M795.1,105.8c0.1-0.4,0.7-0.5,1.2-0.4c0.5,0.2,0.9,0.5,0.8,1l-0.7,2
	c-0.1,0.4-0.7,0.5-1.2,0.3c-0.5-0.2-0.9-0.5-0.7-1L795.1,105.8z M792.9,107.3c-0.5,1.4,0.6,2.4,1.8,2.9c1.2,0.4,2.7,0.1,3.1-1.2
	l0.7-2c0.5-1.4-0.6-2.4-1.8-2.9c-1.2-0.4-2.7-0.2-3.1,1.2L792.9,107.3z M789,107.1l0.3-1.4l0.9,0.2c0.5,0.1,0.6,0.4,0.5,0.8
	c-0.1,0.4-0.3,0.7-0.9,0.6L789,107.1z M792.2,107.2c0.3-1.2-0.1-2-1.8-2.4l-0.9-0.2l0.2-0.9l2.6,0.6l0.3-1.3l-4.2-1l-1.4,6.1
	l2.5,0.6C791,109,792,108.4,792.2,107.2z M783.5,105.1l0.6-1.8l0,0l0.3,1.9L783.5,105.1z M785,101.6l-1.4-0.1l-2.6,6.1l1.7,0.1
	l0.5-1.2l1.7,0.1l0.3,1.3l1.7,0.1L785,101.6z M779.8,104.2c0.4-0.2,0.7-0.8,0.6-1.2c0-1.1-0.8-1.8-2.2-1.7c-0.9,0-1.6,0.4-2,1
	l0.9,0.8c0.2-0.2,0.7-0.5,1.1-0.5c0.5,0,0.8,0.2,0.8,0.6c0,0.4-0.3,0.7-0.7,0.7l-0.9,0l0,1.1l0.9,0c0.5,0,0.8,0.2,0.8,0.7
	c0,0.4-0.3,0.7-1,0.7c-0.4,0-0.8-0.2-1.2-0.6l-1,0.8c0.5,0.8,1.4,1.2,2.3,1.2c1.6,0,2.5-0.8,2.4-2
	C780.7,105.1,780.5,104.5,779.8,104.2z M774,107l-1.6,0.2l-0.5,2.3l1.5-0.2L774,107z M768.1,104.8l-1.5-1.8l-1.8,0.4l2.4,2.7l-1,3.4
	l1.8-0.4l0.6-2.3l1.5,1.8l1.8-0.4l-2.4-2.6l1-3.4l-1.8,0.4L768.1,104.8z M761.8,106l2.6-0.9l-0.5-1.4l-4.1,1.4l2.1,5.9l4.1-1.4
	l-0.5-1.4l-2.6,0.9l-0.3-0.9l2.4-0.8l-0.4-1.3l-2.4,0.8L761.8,106z M759.2,110c0.1,0.9-1.3,1.4-1.6,0.7l-1-1.9
	c-0.3-0.7,0.8-1.5,1.5-1l0.9-1c-0.9-0.8-1.9-0.6-2.6-0.3c-1.1,0.6-1.9,1.8-1.3,3l1,1.9c0.6,1.3,2.1,1.4,3.2,0.8
	c0.7-0.4,1.4-1.1,1.4-2.3L759.2,110z M753.1,114l-0.7-1.1l0.8-0.5c0.8-0.5,1.5,0.6,0.7,1.1L753.1,114z M751.8,112l-0.6-0.9l0.8-0.5
	c0.7-0.4,1.2,0.5,0.6,0.9L751.8,112z M754,110c-0.6-1-1.7-1.2-2.7-0.5l-2.1,1.3l3.4,5.3l2.1-1.4c1.2-0.7,1.4-1.6,1-2.6
	c-0.2-0.4-0.7-1.1-1.7-1C754.2,110.7,754.1,110.2,754,110z M746.1,115.1l0.9,1.1l-0.7,0.6c-0.4,0.3-0.8,0.2-1-0.1
	c-0.3-0.3-0.2-0.7,0.1-1L746.1,115.1z M750.4,117.6l-4.1-4.7l-1.9,1.6c-1.1,0.9-1.3,2.1-0.5,3.1c0.8,0.9,1.5,0.9,2.2,0.6l0,3
	l1.5-1.3l-0.1-2.7l0.2-0.2l1.4,1.6L750.4,117.6z M740.7,120.3l0.8-0.9l3.6,3.1l1-1.2l-4.7-4.1l-2.7,3.1l1.5,1.5c1,1,2.1,1.8,1.2,2.7
	l1.1,1c1.5-1.4,0.7-2.9-0.3-4L740.7,120.3z M739.7,127l-0.8,1.2c-0.3-0.4-0.7-0.7-1.1-1l-1.5-1.1l0.6-0.9L739.7,127z M740.7,130.4
	l-1.1-0.7l1.7-2.6l1.1,0.7l0.9-1.3l-2.2-1.5l-0.4,0.6l-4-2.6l-2.2,3.4l1.7,1.3c1.1,0.9,2.3,1.5,1.6,2.6l2.2,1.5L740.7,130.4z
	 M735.3,138.3l0.6-1.4l-1.6-0.7l-1.2-0.4l0,0l2.3,0.1l0.4-1l-1.6-1.6l0,0l1.1,0.6l1.6,0.7l0.6-1.4l-5.7-2.6l-0.6,1.4l2.2,2.5l-3.3,0
	l-0.6,1.4L735.3,138.3z M729.6,140.5l0.7-2.6l-1.4-0.4l-1.2,4.2l6,1.7l1.2-4.2l-1.4-0.4l-0.7,2.6l-0.9-0.3l0.7-2.4l-1.3-0.4
	l-0.7,2.4L729.6,140.5z M730.4,146.5l-1.7-0.8l0,0l1.9-0.1L730.4,146.5z M727.1,144.7l-0.3,1.4l5.7,3.3l0.3-1.7l-1.2-0.6l0.3-1.6
	l1.3-0.2l0.3-1.7L727.1,144.7z M728,148.5l-1.5-0.1l-0.4,4.9l1.5,0.1l0.1-1.7l4.7,0.4l0.1-1.6l-4.7-0.4L728,148.5z M728.3,157.9
	c-0.5,0-0.7-0.5-0.7-1c0-0.5,0.2-1,0.7-1.1l2.1-0.1c0.4,0,0.7,0.5,0.7,1c0,0.5-0.2,1-0.6,1L728.3,157.9z M730.5,159.4
	c1.4,0,2.1-1.4,2.1-2.7c0-1.3-0.8-2.6-2.2-2.5l-2.1,0.1c-1.4,0-2.1,1.4-2.1,2.7c0,1.3,0.8,2.6,2.2,2.5L730.5,159.4z M731.8,163.2
	l-1.4,0.3l-0.2-0.9c-0.1-0.5,0.1-0.8,0.5-0.8c0.4-0.1,0.8,0,0.8,0.6L731.8,163.2z M730.5,160.2c-1.2,0.2-1.8,0.9-1.5,2.6l0.2,0.9
	l-1,0.2l-0.5-2.6l-1.3,0.2l0.8,4.2l6.1-1.1l-0.5-2.5C732.7,160.7,731.8,160,730.5,160.2z M731.8,169l-1.9,0.1l0,0l1.6-0.9L731.8,169
	z M728,168.8l0.4,1.4l6.6,0.4l-0.5-1.6l-1.3,0l-0.4-1.6l1.1-0.7l-0.5-1.6L728,168.8z M733.1,174.3l-1.4,0.6l-0.3-0.9
	c-0.4-0.9,1.1-1.5,1.4-0.6L733.1,174.3z M736.7,174.6l-0.6-1.5l-1.7,0.7l-0.3-0.9c-0.6-1.4-1.9-1.7-2.9-1.3c-1,0.4-1.8,1.5-1.2,2.9
	l0.9,2.3L736.7,174.6z"/>
</svg>
